HIERARCHY
ROOT pelvis
{
	OFFSET 0.000000 0.000000 0.000000
	CHANNELS 6 Xposition Yposition Zposition Zrotation Xrotation Yrotation
	JOINT lfemur
	{
		OFFSET 11.446000 0.000000 0.000000
		CHANNELS 3 Zrotation Xrotation Yrotation
		JOINT ltibia
		{
			OFFSET 0.000000 -42.030400 0.000000
			CHANNELS 3 Zrotation Xrotation Yrotation
			JOINT lfoot
			{
				OFFSET 0.000000 -39.930200 0.000000
				CHANNELS 3 Zrotation Xrotation Yrotation
				JOINT ltoes
				{
					OFFSET 0.000000 0.000000 11.775800
					CHANNELS 3 Zrotation Xrotation Yrotation
					End Site
					{
					    OFFSET 0.000000 0.000000 5.000000
					}
				}
			}
		}
	}
	JOINT rfemur
	{
		OFFSET -11.446000 0.000000 0.000000
		CHANNELS 3 Zrotation Xrotation Yrotation
		JOINT rtibia
		{
			OFFSET 0.000000 -42.030400 0.000000
			CHANNELS 3 Zrotation Xrotation Yrotation
			JOINT rfoot
			{
				OFFSET 0.000000 -39.930200 0.000000
				CHANNELS 3 Zrotation Xrotation Yrotation
				JOINT rtoes
				{
					OFFSET 0.000000 0.000000 11.775800
					CHANNELS 3 Zrotation Xrotation Yrotation
					End Site
					{
					    OFFSET 0.000000 0.000000 5.000000
					}
				}
			}
		}
	}
	JOINT thorax
	{
		OFFSET 0.000000 11.255600 -5.000000
		CHANNELS 3 Zrotation Xrotation Yrotation
		JOINT head
		{
			OFFSET 0.000000 43.799300 0.000000
			CHANNELS 3 Zrotation Xrotation Yrotation
			End Site
			{
			    OFFSET 0.000000 5.000000 0.000000
			}
		}
		JOINT lclavicle
		{
			OFFSET 0.000000 39.863000 0.000000
			CHANNELS 3 Zrotation Xrotation Yrotation
			JOINT lhumerus
			{
				OFFSET 17.380600 4.958300 0.000000
				CHANNELS 3 Zrotation Xrotation Yrotation
				JOINT lradius
				{
					OFFSET 0.000000 -27.561300 0.000000
					CHANNELS 3 Zrotation Xrotation Yrotation
					JOINT lhand
					{
						OFFSET 0.000000 -26.933000 0.000000
						CHANNELS 3 Zrotation Xrotation Yrotation
						End Site
						{
						    OFFSET 0.000000 -5.000000 0.000000
						}
					}
				}
			}
		}
		JOINT rclavicle
		{
			OFFSET 0.000000 39.863000 0.000000
			CHANNELS 3 Zrotation Xrotation Yrotation
			JOINT rhumerus
			{
				OFFSET -17.380600 4.958300 0.000000
				CHANNELS 3 Zrotation Xrotation Yrotation
				JOINT rradius
				{
					OFFSET 0.000000 -27.561300 0.000000
					CHANNELS 3 Zrotation Xrotation Yrotation
					JOINT rhand
					{
						OFFSET 0.000000 -26.933000 0.000000
						CHANNELS 3 Zrotation Xrotation Yrotation
						End Site
						{
						    OFFSET 0.000000 -5.000000 0.000000
						}
					}
				}
			}
		}
	}
}
MOTION
Frames:	14
Frame Time:	0.0333333
-67.4015 79.0011 -187.852 -7.85332 4.18636 -12.8902 3.16737 -20.6037 6.32348 175.118 76.5984 -174.595 1.3027 -4.42412 0.127465 -1.55549e-015 -5 3.99088e-016 6.62111 -23.0592 -0.346198 -0.657616 53.7957 0.165411 -3.6297 -18.3888 -10.2779 2.38542e-015 -5 -0 10.9271 18.9513 -4.1987 0.234527 -19.4946 3.51504 1.59028e-015 3.18055e-015 -3.18055e-015 9.97416 7.07493 -26.7529 75.5297 -52.8849 54.1132 -0.320544 2.25049 16.2332 1.59028e-015 3.18055e-015 -3.18055e-015 -15.0716 -5.78102 44.4115 -104.7 -50.6152 -79.4282 0.0177275 0.540648 -3.83902 
-66.8316 79.5456 -174.057 -8.36183 5.40009 -9.45405 4.83304 -36.5174 5.28257 173.428 80.7016 -173.12 0.790767 -4.12979 4.85939 -6.95656e-017 -5 -7.98176e-016 5.70507 -11.0353 0.891402 -0.482057 48.7229 -1.02132 -4.48167 -21.226 -14.8727 -1.59028e-015 -5 -0 11.1655 17.9045 1.23135 -0.32115 -19.2001 -3.98086 1.19271e-015 -9.54166e-015 -0 11.4504 9.59538 -33.3373 80.5835 -53.0677 58.5191 -0.606869 3.06663 22.4022 1.19271e-015 -9.54166e-015 -0 -13.1091 -10.8792 43.3296 -109.044 -49.5151 -83.1243 0.0755714 1.10455 -7.87432 
-65.5528 81.2459 -159.237 -8.843 5.44911 -6.20414 2.94336 -44.5001 1.3957 8.21641 84.1453 -8.21111 0.660001 -2.66749 8.82411 -7.88921e-017 -5 -4.9886e-017 4.30673 2.18007 2.40011 -0.299353 40.8293 -1.50417 -0.660938 -12.4097 -11.5372 -1.86854e-015 -5 -3.1927e-015 12.2117 16.8938 3.37858 -1.2818 -18.7641 -9.12452 0 3.18055e-015 -0 10.5811 12.6246 -36.9162 84.2621 -53.0536 61.7284 -0.607609 3.06847 22.4147 0 3.18055e-015 -0 -12.6715 -8.63726 44.2093 -118.29 -46.3194 -90.8428 0.120492 1.39063 -9.93574 
-63.7141 82.7592 -143.463 -8.76671 4.94791 -1.59766 -1.93073 -45.6662 -5.72292 1.03772 61.3543 -1.30541 0.489445 3.21865 3.8135 -1.64002e-016 -5 3.99088e-016 2.30772 12.6116 3.48309 -0.193914 34.7758 -1.85915 2.78521 8.96906 -5.18444 1.52071e-015 -5 -7.98176e-016 13.2373 15.2106 2.51429 -1.59597 -17.2328 -11.7176 -8.69683e-016 -3.18055e-015 -9.93923e-017 8.77222 15.0512 -38.5056 85.3237 -53.0265 62.6544 -0.506825 2.8122 20.4508 -8.69683e-016 -3.18055e-015 -9.93923e-017 -13.8081 -6.19443 46.6194 -120.497 -45.3594 -92.6459 0.0531403 0.927688 -6.60539 
-62.1568 84.2032 -127.698 -7.72577 5.70748 -2.31188 -1.76036 -42.0919 -4.59297 0.275582 38.3831 -0.558716 0.283573 10.7652 2.16162 -1.68958e-016 -5 -7.98176e-016 -0.392384 16.308 9.30112 -0.194203 33.0128 0.00478457 -2.71363 27.0171 2.94796 -3.47828e-017 -5 -3.99088e-016 10.9131 12.7155 5.60846 -0.301393 -15.6662 -13.589 2.98177e-016 -3.18055e-015 -3.97569e-016 8.48448 16.1936 -39.2813 85.7136 -53.0139 62.9945 -0.412362 2.54482 18.4285 2.98177e-016 -3.18055e-015 -3.97569e-016 -13.8413 -3.32782 49.3516 -118.992 -46.0239 -91.4172 0.0926162 1.22076 -8.70994 
-61.4938 84.0985 -113.703 -10.3719 5.16669 0.384956 0.267457 -39.6071 -3.12086 0.16781 31.0235 -0.316926 -0.400296 17.0708 4.55224 -1.49089e-015 -5 -0 4.31449 12.731 7.70556 -0.531783 49.0521 0.3773 -0.661043 15.9242 -2.08249 -1.59028e-015 -5 -0 12.5461 13.9747 3.1848 1.641 -17.7916 -12.8041 -3.97569e-016 3.18055e-015 3.97569e-016 8.38243 13.2045 -39.2187 88.0137 -52.9114 64.9993 -0.407132 2.5292 18.3101 -3.97569e-016 3.18055e-015 3.97569e-016 -13.198 -3.66422 51.017 -114.077 -47.9321 -87.355 0.0526237 0.923069 -6.57207 
-59.0194 84.0431 -99.1848 -6.0808 3.74162 0.817233 -5.67444 -32.0263 2.25404 0.249422 36.4025 -0.383602 5.38652 5.29302 2.38081 2.71342e-015 -5 -7.98176e-016 -1.98564 4.75504 1.31907 -1.71002 68.6406 1.56413 0.393221 10.7793 -5.56861 -7.45397e-016 -5 -3.99088e-015 5.9461 14.6777 1.31995 4.20707 -17.9656 -10.976 9.93923e-017 -9.54166e-015 -1.98785e-016 11.0662 9.57819 -41.0881 89.8225 -52.7964 66.574 -0.510027 2.82084 20.5149 9.93923e-017 -9.54166e-015 -1.98785e-016 -10.5686 -1.26285 50.8418 -109.352 -49.4287 -83.3846 0.0166719 0.524502 -3.72429 
-56.5719 83.0818 -86.135 -1.44094 3.51178 1.07233 -12.4238 -25.8389 1.29575 0.368835 42.8017 -0.0748539 8.56538 -3.76895 5.21281 1.39131e-016 -5 1.59635e-015 -10.56 -8.59895 -5.40292 -9.18079 84.5907 9.03667 0.00762569 2.78621 -6.13155 -4.90789e-016 -5 3.49202e-015 -0.453778 15.6141 -0.0717492 6.26099 -17.3724 -8.94927 2.48481e-016 -6.36111e-015 -0 14.1238 3.48906 -42.6669 89.5495 -52.8162 66.3359 -0.387244 2.46821 17.853 2.48481e-016 -6.36111e-015 -0 -7.64753 3.51436 47.566 -109.789 -49.3026 -83.7549 0.000960554 0.146667 -1.03325 
-53.7712 83.0468 -73.1796 0.959947 5.30339 1.72709 -15.9152 -21.3398 2.13489 0.502081 48.3446 -0.0865367 9.12531 -6.60926 3.35172 1.42628e-015 -5 3.99088e-016 -15.9354 -24.1977 -10.4039 -30.7886 88.2232 30.5356 -0.52003 -0.989944 -6.12019 -5.56525e-016 -5 -6.38541e-015 -2.11176 14.7132 -2.18496 5.17331 -17.2542 -6.40095 -1.18028e-016 3.18055e-015 -1.49089e-016 14.2668 0.312421 -42.2831 90.6207 -52.7361 67.2681 -0.410239 2.5385 18.3802 -1.18028e-016 3.18055e-015 -1.49089e-016 -7.76645 7.94066 44.4205 -112.683 -48.4051 -86.1904 0.0461922 0.865957 -6.16307 
-51.4185 83.9267 -59.2446 0.279759 5.40689 0.511983 -14.3082 -16.3179 4.60642 0.691093 54.284 -1.04577 13.0663 -1.31342 -3.22678 2.78262e-016 -5 3.1927e-015 -13.6261 -35.1526 -7.85574 -3.86238 78.7227 3.67433 -0.990637 -1.8729 -5.64619 1.45115e-015 -5 -1.59635e-015 -0.215983 15.1315 -3.14349 3.43266 -17.1251 -2.28389 -2.98177e-016 9.54166e-015 -0 13.3425 0.392283 -40.9667 93.986 -52.4131 70.1927 -0.606243 3.06544 22.3894 -2.98177e-016 9.54166e-015 -0 -9.9693 12.1383 42.6659 -115.455 -47.4337 -88.5023 0.0471972 0.874881 -6.22663 
-49.543 85.0442 -44.7024 -0.626219 5.0048 -3.80604 -10.4242 -13.3411 8.79979 0.9212 59.9478 -2.55696 12.7389 11.8702 -12.7425 -4.86959e-016 -5 -5.58723e-015 -7.36812 -40.2581 3.02278 -0.892244 58.8161 0.961728 -1.41212 3.93805 2.29814 -2.18663e-015 -5 -0 -0.0560985 16.0494 -0.221954 3.63863 -16.8495 1.22871 -1.98785e-016 -3.18055e-015 -1.59028e-015 13.6077 1.6367 -39.9565 95.5967 -52.2193 71.5893 -0.559464 2.94967 21.4984 -1.98785e-016 -3.18055e-015 -1.59028e-015 -12.3993 14.3466 42.366 -116.896 -46.883 -89.6945 0.0325095 0.727669 -5.1739 
-46.8186 85.4169 -29.7312 -0.620733 4.29256 -0.26576 -9.22689 -10.3684 7.03554 1.326 65.2707 -1.46749 0.983183 15.5147 -0.487514 -1.22992e-015 -5 -4.9886e-015 -10.3413 -36.0553 4.89976 -0.210775 34.5588 0.379482 -2.11169 10.4625 6.65734 -1.59028e-015 -5 -0 1.19636 16.2987 -2.42654 3.27149 -15.6466 1.89194 1.98785e-016 0 -0 14.0183 4.14242 -41.4645 96.2579 -52.1322 72.1618 -0.590644 3.02748 22.0965 1.98785e-016 0 -0 -14.7749 15.3665 41.2191 -116.86 -46.8968 -89.6653 0.0325505 0.72797 -5.17565 
-44.1434 84.8267 -14.9811 -0.972738 3.18016 8.61465 -7.01288 -11.3029 1.65878 2.65086 74.6814 -3.15639 -2.43827 9.66461 9.49924 3.47828e-017 -5 3.99088e-016 -14.8604 -28.041 4.66303 -0.0674189 20.8515 0.24923 -0.85603 13.4138 1.23207 1.98785e-016 -5 -0 3.25559 16.567 -6.78906 2.52262 -14.3049 -0.206157 -9.93923e-017 6.36111e-015 3.97569e-016 14.6277 5.07754 -42.0715 92.4627 -52.5728 68.8699 -0.539744 2.89904 21.1119 -9.93923e-017 6.36111e-015 3.97569e-016 -15.4159 14.6734 39.0575 -115.674 -47.3516 -88.6839 0.0480375 0.882628 -6.28226 
-42.3517 83.1326 -0.897692 -2.63682 0.76663 14.4373 -2.05074 -17.9697 0.154693 10.6426 85.3313 -11.3137 -0.537297 2.4747 4.43361 1.86854e-015 -5 3.1927e-015 -14.2557 -23.9236 0.824542 -0.0953452 26.9563 -0.644334 -0.848424 6.51043 3.68159 -7.95139e-016 -5 -0 5.02959 19.1054 -5.85248 2.17775 -15.8954 -3.57822 -7.95139e-016 0 -0 14.8955 4.8738 -39.53 86.9299 -52.9664 64.054 -0.475872 2.72791 19.8103 -7.95139e-016 0 -0 -14.8269 11.7629 38.1587 -115.978 -47.2372 -88.9357 0.113103 1.34793 -9.62722 
